<mxfile host="65bd71144e">
    <diagram id="HCz33bfMo6KqFfia0_LY" name="order-lifecycle">
        <mxGraphModel dx="538" dy="451" grid="1" gridSize="10" guides="1" tooltips="1" connect="1" arrows="1" fold="1" page="1" pageScale="1" pageWidth="827" pageHeight="1169" math="0" shadow="0">
            <root>
                <mxCell id="0"/>
                <mxCell id="1" parent="0"/>
                <mxCell id="15" value="" style="edgeStyle=none;html=1;" parent="1" source="5" target="6" edge="1">
                    <mxGeometry relative="1" as="geometry"/>
                </mxCell>
                <mxCell id="17" style="edgeStyle=none;html=1;entryX=0.5;entryY=0;entryDx=0;entryDy=0;" parent="1" source="5" target="16" edge="1">
                    <mxGeometry relative="1" as="geometry">
                        <mxPoint x="420" y="900" as="targetPoint"/>
                        <Array as="points">
                            <mxPoint x="460" y="310"/>
                        </Array>
                    </mxGeometry>
                </mxCell>
                <mxCell id="5" value="Creation" style="rounded=0;whiteSpace=wrap;html=1;" parent="1" vertex="1">
                    <mxGeometry x="200" y="280" width="120" height="60" as="geometry"/>
                </mxCell>
                <mxCell id="8" value="" style="edgeStyle=none;html=1;" parent="1" source="6" target="7" edge="1">
                    <mxGeometry relative="1" as="geometry"/>
                </mxCell>
                <mxCell id="6" value="Confirmation" style="whiteSpace=wrap;html=1;fillColor=rgb(255, 255, 255);rounded=0;" parent="1" vertex="1">
                    <mxGeometry x="200" y="387" width="120" height="60" as="geometry"/>
                </mxCell>
                <mxCell id="10" value="" style="edgeStyle=none;html=1;" parent="1" source="7" target="9" edge="1">
                    <mxGeometry relative="1" as="geometry"/>
                </mxCell>
                <mxCell id="7" value="Preparation" style="whiteSpace=wrap;html=1;fillColor=rgb(255, 255, 255);rounded=0;" parent="1" vertex="1">
                    <mxGeometry x="200" y="493" width="120" height="60" as="geometry"/>
                </mxCell>
                <mxCell id="12" value="" style="edgeStyle=none;html=1;" parent="1" source="9" target="11" edge="1">
                    <mxGeometry relative="1" as="geometry"/>
                </mxCell>
                <mxCell id="9" value="Delivery" style="whiteSpace=wrap;html=1;fillColor=rgb(255, 255, 255);rounded=0;" parent="1" vertex="1">
                    <mxGeometry x="200" y="600" width="120" height="60" as="geometry"/>
                </mxCell>
                <mxCell id="14" value="" style="edgeStyle=none;html=1;fontSize=11;endSize=6;arcSize=20;" parent="1" source="11" target="13" edge="1">
                    <mxGeometry relative="1" as="geometry">
                        <Array as="points">
                            <mxPoint x="260" y="830"/>
                            <mxPoint x="360" y="830"/>
                        </Array>
                    </mxGeometry>
                </mxCell>
                <mxCell id="11" value="Arrival" style="whiteSpace=wrap;html=1;fillColor=rgb(255, 255, 255);rounded=0;" parent="1" vertex="1">
                    <mxGeometry x="200" y="707" width="120" height="60" as="geometry"/>
                </mxCell>
                <mxCell id="13" value="Deletion" style="whiteSpace=wrap;html=1;fillColor=rgb(255, 255, 255);rounded=0;" parent="1" vertex="1">
                    <mxGeometry x="300" y="880" width="120" height="60" as="geometry"/>
                </mxCell>
                <mxCell id="34" style="edgeStyle=none;html=1;entryX=0.5;entryY=0;entryDx=0;entryDy=0;fontSize=11;endArrow=none;endFill=0;endSize=6;" parent="1" source="16" target="13" edge="1">
                    <mxGeometry relative="1" as="geometry">
                        <Array as="points">
                            <mxPoint x="460" y="830"/>
                            <mxPoint x="360" y="830"/>
                        </Array>
                    </mxGeometry>
                </mxCell>
                <mxCell id="16" value="Cancellation" style="rounded=0;whiteSpace=wrap;html=1;" parent="1" vertex="1">
                    <mxGeometry x="400" y="707" width="120" height="60" as="geometry"/>
                </mxCell>
                <mxCell id="19" value="" style="endArrow=none;html=1;exitX=1;exitY=0.5;exitDx=0;exitDy=0;" parent="1" source="6" edge="1">
                    <mxGeometry width="50" height="50" relative="1" as="geometry">
                        <mxPoint x="330" y="450" as="sourcePoint"/>
                        <mxPoint x="460" y="417" as="targetPoint"/>
                    </mxGeometry>
                </mxCell>
                <mxCell id="20" value="" style="endArrow=none;html=1;exitX=1;exitY=0.5;exitDx=0;exitDy=0;" parent="1" source="7" edge="1">
                    <mxGeometry width="50" height="50" relative="1" as="geometry">
                        <mxPoint x="330" y="540" as="sourcePoint"/>
                        <mxPoint x="460" y="523" as="targetPoint"/>
                    </mxGeometry>
                </mxCell>
                <mxCell id="22" value="" style="endArrow=none;html=1;exitX=1;exitY=0.5;exitDx=0;exitDy=0;" parent="1" source="9" edge="1">
                    <mxGeometry width="50" height="50" relative="1" as="geometry">
                        <mxPoint x="330" y="680" as="sourcePoint"/>
                        <mxPoint x="460" y="630" as="targetPoint"/>
                    </mxGeometry>
                </mxCell>
                <mxCell id="28" value="The lifecycle of an order is divided into the following stages:&amp;nbsp;&lt;br&gt;- Creation: When a order is created&lt;br&gt;- Confirmation: When a order is confirmed by a waiter&lt;br&gt;- Preparation: When a order is beling prepared by kitchen staff&lt;br&gt;- Delivery: When a order is being delivered&lt;br&gt;- Arrival: When a order is delivered to a table&lt;br&gt;- Deletion: When an order is deleted&lt;br&gt;- Cancellation: When an order is cancelled" style="shape=note;size=20;whiteSpace=wrap;html=1;fontSize=11;align=left;horizontal=1;verticalAlign=top;" parent="1" vertex="1">
                    <mxGeometry y="320" width="160" height="470" as="geometry"/>
                </mxCell>
                <mxCell id="35" value="Lifecycle of an order" style="text;strokeColor=none;fillColor=none;html=1;fontSize=24;fontStyle=1;verticalAlign=middle;align=center;" vertex="1" parent="1">
                    <mxGeometry x="230" y="160" width="100" height="40" as="geometry"/>
                </mxCell>
            </root>
        </mxGraphModel>
    </diagram>
    <diagram id="CnCsbMNEkMDm_wQLqFnn" name="creation">
        <mxGraphModel dx="538" dy="451" grid="1" gridSize="10" guides="1" tooltips="1" connect="1" arrows="1" fold="1" page="1" pageScale="1" pageWidth="827" pageHeight="1169" math="0" shadow="0">
            <root>
                <mxCell id="0"/>
                <mxCell id="1" parent="0"/>
            </root>
        </mxGraphModel>
    </diagram>
</mxfile>